<svg xmlns="http://www.w3.org/2000/svg" viewBox="0 0 800 1000" width="800" height="1000" role="img">
<defs>
  <linearGradient id="bg" x1="0" y1="0" x2="1" y2="1"><stop offset="0" stop-color="#f5ece3"/><stop offset="1" stop-color="#ddd4cc"/></linearGradient>
  <linearGradient id="g" x1="0" y1="0" x2="1" y2="0"><stop offset="0" stop-color="#a47544"/><stop offset=".45" stop-color="#bc8c5a"/><stop offset="1" stop-color="#996d40"/></linearGradient>
  <linearGradient id="gd" x1="0" y1="0" x2="1" y2="1"><stop offset="0" stop-color="#f2d98b"/><stop offset=".5" stop-color="#c9a24b"/><stop offset="1" stop-color="#8f6b1e"/></linearGradient>
  <radialGradient id="gl" cx=".3" cy=".25" r=".9"><stop offset="0" stop-color="#ffffff" stop-opacity=".28"/><stop offset="1" stop-color="#ffffff" stop-opacity="0"/></radialGradient>
</defs>
<rect x="-1000" y="-1000" width="3000" height="3000" fill="url(#bg)"/>
<circle cx="400" cy="500" r="300" fill="#c4551d" opacity="0.16"/>
<ellipse cx="400" cy="905" rx="250" ry="16" fill="#000" opacity=".10"/>

    <path d="M290 330 C290 150 510 150 510 330" stroke="#7f5b35" stroke-width="22" fill="none" stroke-linecap="round"/>
    <path d="M200 340 L600 340 L650 800 Q400 850 150 800 Z" fill="url(#g)"/>
    <path d="M200 340 L600 340 L612 470 Q400 540 188 470 Z" fill="#9d7041"/>
    <rect x="368" y="470" width="64" height="48" rx="10" fill="#c9a24b"/>
    <rect x="388" y="486" width="24" height="18" rx="4" fill="#836931"/>
    <path d="M190 780 Q400 840 610 780" stroke="#c8a179" stroke-width="3" stroke-dasharray="10 8" fill="none"/>
</svg>