<svg xmlns="http://www.w3.org/2000/svg" viewBox="0 0 800 1000" width="800" height="1000" role="img">
<defs>
  <linearGradient id="bg" x1="0" y1="0" x2="1" y2="1"><stop offset="0" stop-color="#e8e6e1"/><stop offset="1" stop-color="#d1cfcb"/></linearGradient>
  <linearGradient id="g" x1="0" y1="0" x2="1" y2="0"><stop offset="0" stop-color="#b17f7d"/><stop offset=".45" stop-color="#ca9694"/><stop offset="1" stop-color="#a57675"/></linearGradient>
  <linearGradient id="gd" x1="0" y1="0" x2="1" y2="1"><stop offset="0" stop-color="#f2d98b"/><stop offset=".5" stop-color="#c9a24b"/><stop offset="1" stop-color="#8f6b1e"/></linearGradient>
  <radialGradient id="gl" cx=".3" cy=".25" r=".9"><stop offset="0" stop-color="#ffffff" stop-opacity=".28"/><stop offset="1" stop-color="#ffffff" stop-opacity="0"/></radialGradient>
</defs>
<rect x="-1000" y="-1000" width="3000" height="3000" fill="url(#bg)"/>
<circle cx="400" cy="500" r="300" fill="#1f5a4b" opacity="0.16"/>
<ellipse cx="400" cy="905" rx="250" ry="16" fill="#000" opacity=".10"/>

    <path d="M200 140 L620 140 L620 860 L200 860Z" fill="#805c5a"/>
    <path d="M178 120 L598 120 L598 840 L178 840Z" fill="url(#g)"/>
    <rect x="178" y="120" width="38" height="720" fill="#9e716f"/>
    <rect x="236" y="150" width="338" height="660" rx="6" fill="none" stroke="#c9a24b" stroke-width="4"/>
    <rect x="250" y="164" width="310" height="632" rx="4" fill="none" stroke="#c9a24b" stroke-width="1.5"/>
    <g transform="translate(405 400)" fill="none" stroke="#c9a24b" stroke-width="3">
      <rect x="-70" y="-70" width="140" height="140"/>
      <rect x="-70" y="-70" width="140" height="140" transform="rotate(45)"/>
      <circle r="28"/>
    </g>
    <text x="405" y="590" text-anchor="middle" font-family="Georgia,serif" font-size="30" fill="#c9a24b">Guidance for Her</text>
    <path d="M300 640 L510 640 M320 670 L490 670" stroke="#c9a24b" stroke-width="2" opacity=".7"/>
</svg>