<svg xmlns="http://www.w3.org/2000/svg" viewBox="0 0 800 1000" width="800" height="1000" role="img">
<defs>
  <linearGradient id="bg" x1="0" y1="0" x2="1" y2="1"><stop offset="0" stop-color="#efe7da"/><stop offset="1" stop-color="#d7d0c4"/></linearGradient>
  <linearGradient id="g" x1="0" y1="0" x2="1" y2="0"><stop offset="0" stop-color="#4f2b47"/><stop offset=".45" stop-color="#65415d"/><stop offset="1" stop-color="#4a2842"/></linearGradient>
  <linearGradient id="gd" x1="0" y1="0" x2="1" y2="1"><stop offset="0" stop-color="#f2d98b"/><stop offset=".5" stop-color="#c9a24b"/><stop offset="1" stop-color="#8f6b1e"/></linearGradient>
  <radialGradient id="gl" cx=".3" cy=".25" r=".9"><stop offset="0" stop-color="#ffffff" stop-opacity=".28"/><stop offset="1" stop-color="#ffffff" stop-opacity="0"/></radialGradient>
</defs>
<rect x="-1000" y="-1000" width="3000" height="3000" fill="url(#bg)"/>
<circle cx="400" cy="500" r="300" fill="#a8683a" opacity="0.16"/>
<ellipse cx="400" cy="905" rx="250" ry="16" fill="#000" opacity=".10"/>

    <path d="M160 400 L640 400 L640 840 L160 840Z" fill="url(#g)"/>
    <rect x="140" y="320" width="520" height="110" rx="10" fill="#4d2a46"/>
    <rect x="360" y="320" width="80" height="520" fill="#c9a24b"/>
    <path d="M400 320 C300 200 220 230 260 290 C290 330 380 320 400 320Z" fill="#c9a24b"/>
    <path d="M400 320 C500 200 580 230 540 290 C510 330 420 320 400 320Z" fill="#b18f42"/>
    <circle cx="400" cy="318" r="20" fill="#977a38"/>
</svg>