<svg xmlns="http://www.w3.org/2000/svg" viewBox="120 160 560 700" width="800" height="1000" role="img">
<defs>
  <linearGradient id="bg" x1="0" y1="0" x2="1" y2="1"><stop offset="0" stop-color="#e0dcd6"/><stop offset="1" stop-color="#d4d1cb"/></linearGradient>
  <linearGradient id="g" x1="0" y1="0" x2="1" y2="0"><stop offset="0" stop-color="#1a1819"/><stop offset=".45" stop-color="#2f2d2e"/><stop offset="1" stop-color="#181718"/></linearGradient>
  <linearGradient id="gd" x1="0" y1="0" x2="1" y2="1"><stop offset="0" stop-color="#f2d98b"/><stop offset=".5" stop-color="#c9a24b"/><stop offset="1" stop-color="#8f6b1e"/></linearGradient>
  <radialGradient id="gl" cx=".3" cy=".25" r=".9"><stop offset="0" stop-color="#ffffff" stop-opacity=".28"/><stop offset="1" stop-color="#ffffff" stop-opacity="0"/></radialGradient>
</defs>
<rect x="-1000" y="-1000" width="3000" height="3000" fill="url(#bg)"/>
<circle cx="260" cy="380" r="330" fill="#3f4a5c" opacity="0.22"/>
<ellipse cx="400" cy="905" rx="250" ry="16" fill="#000" opacity=".10"/>

    <path d="M320 180 L480 180 L560 240 L610 900 L190 900 L240 240 Z" fill="url(#g)"/>
    <path d="M490 190 L560 240 L720 620 L640 660 L540 340Z" fill="#1a1819"/>
    <path d="M310 190 L240 240 L80 620 L160 660 L260 340Z" fill="#1a1819"/>
    <path d="M350 180 L400 300 L450 180" fill="#615f60"/>
    <path d="M400 300 L400 560" stroke="#c9a24b" stroke-width="5"/>
    <circle cx="400" cy="340" r="9" fill="none" stroke="#c9a24b" stroke-width="3"/><circle cx="400" cy="395" r="9" fill="none" stroke="#c9a24b" stroke-width="3"/><circle cx="400" cy="450" r="9" fill="none" stroke="#c9a24b" stroke-width="3"/><circle cx="400" cy="505" r="9" fill="none" stroke="#c9a24b" stroke-width="3"/>
    <path d="M200 860 Q400 890 600 860" stroke="#c9a24b" stroke-width="5" fill="none"/>
</svg>