<svg xmlns="http://www.w3.org/2000/svg" viewBox="120 160 560 700" width="800" height="1000" role="img">
<defs>
  <linearGradient id="bg" x1="0" y1="0" x2="1" y2="1"><stop offset="0" stop-color="#eae0d4"/><stop offset="1" stop-color="#ddd4c9"/></linearGradient>
  <linearGradient id="g" x1="0" y1="0" x2="1" y2="0"><stop offset="0" stop-color="#125144"/><stop offset=".45" stop-color="#276759"/><stop offset="1" stop-color="#114c3f"/></linearGradient>
  <linearGradient id="gd" x1="0" y1="0" x2="1" y2="1"><stop offset="0" stop-color="#f2d98b"/><stop offset=".5" stop-color="#c9a24b"/><stop offset="1" stop-color="#8f6b1e"/></linearGradient>
  <radialGradient id="gl" cx=".3" cy=".25" r=".9"><stop offset="0" stop-color="#ffffff" stop-opacity=".28"/><stop offset="1" stop-color="#ffffff" stop-opacity="0"/></radialGradient>
</defs>
<rect x="-1000" y="-1000" width="3000" height="3000" fill="url(#bg)"/>
<circle cx="260" cy="380" r="330" fill="#d18b2b" opacity="0.22"/>
<ellipse cx="400" cy="905" rx="250" ry="16" fill="#000" opacity=".10"/>

    
    <rect x="210" y="520" width="190" height="190" rx="18" fill="#145a4b"/>
    <g transform="translate(305 615)" fill="#f7efe0">
      <path d="M-10 -55 a55 55 0 1 0 50 75 a42 42 0 1 1 -50 -75z"/>
    </g>
    <rect x="400" y="520" width="190" height="190" rx="18" fill="#5b8c81"/>
    <g transform="translate(495 615)" fill="#f7efe0">
      <path d="M0 -55 l14 36 39 3 -30 25 10 38 -33 -21 -33 21 10 -38 -30 -25 39 -3z"/>
    </g>
    <rect x="305" y="330" width="190" height="190" rx="18" fill="#10483c"/>
    <g transform="translate(400 425)" fill="#f7efe0">
      <circle cx="-25" cy="-20" r="14"/><circle cx="25" cy="-20" r="14"/><circle cx="0" cy="25" r="14"/>
    </g>
</svg>